<?xml version="1.0" standalone="no"?>
<!DOCTYPE svg PUBLIC "-//W3C//DTD SVG 20010904//EN"
 "http://www.w3.org/TR/2001/REC-SVG-20010904/DTD/svg10.dtd">
<svg version="1.0" xmlns="http://www.w3.org/2000/svg"
 width="483.000000pt" height="483.000000pt" viewBox="0 0 483.000000 483.000000"
 preserveAspectRatio="xMidYMid meet">
<metadata>
Created by potrace 1.14, written by Peter Selinger 2001-2017
</metadata>
<g transform="translate(0.000000,483.000000) scale(0.100000,-0.100000)"
fill="#000000" stroke="none">
<path d="M2115 4820 c-701 -46 -1376 -237 -1972 -557 l-145 -78 6 -150 c34
-752 198 -1392 520 -2030 363 -716 846 -1284 1496 -1754 162 -117 369 -244
389 -238 37 9 311 188 464 303 199 149 345 274 508 435 758 751 1254 1755
1389 2812 24 191 42 459 38 557 l-3 74 -180 93 c-562 289 -1127 456 -1755 519
-182 18 -584 25 -755 14z m447 -491 c190 -20 422 -91 578 -177 417 -227 712
-628 807 -1097 27 -137 25 -454 -5 -591 -69 -320 -204 -568 -436 -800 -234
-234 -477 -365 -806 -435 -143 -31 -417 -33 -565 -5 -872 162 -1443 998 -1269
1856 159 782 908 1334 1696 1249z"/>
<path d="M2220 4300 c-137 -19 -123 -9 -186 -127 -185 -343 -303 -723 -360
-1153 -19 -145 -33 -765 -17 -781 15 -15 461 164 738 295 76 37 140 65 141 63
2 -1 -13 -52 -32 -112 -37 -118 -134 -498 -134 -527 0 -17 -15 -18 -195 -18
-107 0 -195 -3 -195 -7 0 -13 295 -673 300 -673 3 0 187 152 410 338 l405 337
-216 3 -216 2 117 178 c265 400 483 798 555 1013 31 94 44 169 30 169 -20 0
-195 -46 -284 -75 -226 -73 -538 -218 -806 -373 -66 -38 -121 -66 -123 -63 -5
13 84 224 151 357 179 357 388 654 645 916 l105 106 -39 17 c-86 37 -213 76
-313 96 -120 23 -376 33 -481 19z"/>
</g>
</svg>
